<?xml version="1.0" standalone="no"?><!DOCTYPE svg PUBLIC "-//W3C//DTD SVG 1.1//EN" "http://www.w3.org/Graphics/SVG/1.1/DTD/svg11.dtd"><svg t="1760086930653" class="icon" viewBox="0 0 1024 1024" version="1.1" xmlns="http://www.w3.org/2000/svg" p-id="9224" xmlns:xlink="http://www.w3.org/1999/xlink" width="200" height="200"><path d="M512 0c282.752 0 512 229.248 512 512s-229.248 512-512 512S0 794.752 0 512 229.248 0 512 0z m0 55.466667C259.84 55.466667 55.466667 259.84 55.466667 512c0 252.16 204.373333 456.533333 456.533333 456.533333 252.16 0 456.533333-204.373333 456.533333-456.533333 0-252.16-204.373333-456.533333-456.533333-456.533333z m-50.133333 203.776l170.154666 438.186666 0.597334 1.706667a22.741333 22.741333 0 0 1-15.274667 28.288 27.349333 27.349333 0 0 1-33.066667-15.658667l-48.469333-116.181333h-209.066667l-44.458666 114.474667a28.970667 28.970667 0 0 1-36.992 16.64 23.765333 23.765333 0 0 1-13.568-30.72L401.322667 259.2h60.544z m254.592 0c14.250667 0 25.813333 11.562667 25.813333 25.813333v415.573333a25.813333 25.813333 0 0 1-51.626667 0V285.013333c0-14.250667 11.562667-25.813333 25.813334-25.813333z m-283.306667 57.6h-2.517333L343.338667 550.4h175.872l-86.016-233.6z" p-id="9225"></path></svg>